<?xml version="1.0" encoding="UTF-8"?><svg id="Ebene_3" xmlns="http://www.w3.org/2000/svg" viewBox="0 0 341.05 341.99"><defs><style>.cls-1{stroke:#b51917;stroke-miterlimit:10;stroke-width:.25px;}.cls-1,.cls-2{fill:#b51917;}.cls-3{fill:#1d1d1b;}.cls-3,.cls-2{stroke-width:0px;}</style></defs><path class="cls-2" d="m143.52,184.81c5-13.91,34.62-21.49,47.27-27.99,4.99-2.3,10.02-4.61,14.14-8.25,3.92-3.47,7.09-7.99,9.31-12.65,6.94-13.69-.48-31.82-14.78-36.78-11.49-4.06-23.25,2.85-30.41,11.87,0,0-1.35,2.7-1.35,2.7-2.69-5.15-6.23-10.09-10.75-13.64-11.95-9.54-24.4-9.78-34.17,2.75-4.33,5.5-5.52,12.47-4.64,19.27.81,7.17,3.68,13.95,8.65,19.37,3.25,3.46,7.11,6.65,11.5,8.59.25.15.35.03.56-.21,0,0-.25.78-.25.78-.04-.32-.05-.47-.33-.53-12.3-3.94-22.22-14.41-24.87-27.2-4.02-15.49,4.54-32.43,20.45-36.52,15.42-3.36,30.69,9.07,35.32,23.09,0,0-3.01-.22-3-.22,6.75-15.91,25.97-24.56,41.66-14.8,10.86,6.58,16.87,19.89,15.02,32.35-1.56,9.99-7.53,18.98-15.65,24.76-4.85,3.1-10.02,5.69-15.29,7.85-13.86,5.5-29.07,8.04-41.26,17.04-2.94,2.2-5.91,4.8-7.11,8.38h0Z"/><path class="cls-1" d="m130,232.98c0,.12-.03.22-.06.31-.03.03-.03.06-.03.06-.09.31-.22.62-.31.93v.09c0,.31-.12.59-.19.87l-.06.25c-.03.12-.06.25-.12.37,0,.03-.03.06-.03.09-.06.37-.22.68-.22,1.05,0,.09-.03.19-.06.25-.06.12-.12.22-.16.34s0,.25-.03.34c0,.12-.06.25-.06.37l-.09.43c-.03.34-.06.68-.09.99l-.19,1.18c-.06.22-.09.43-.09.65,0,.09-.06.19-.06.28-.06.25-.12.47-.16.71v.03c.03.28-.06.56-.09.84,0,.12-.06.28-.09.4l-.06.15c-.06.34-.09.68-.15,1.02-.09.31-.12.62-.19.93,0,.12-.03.22-.06.31l-.25.99c-.09.31-.19.59-.25.87-.06.31-.16.56-.25.87-.09.22-.22.46-.22.71,0,.16-.06.28-.12.4-.09.22-.19.43-.25.65-.03.22-.12.4-.19.56-.16.37-.56.59-.93.53-.03-.03-.06-.03-.12-.03-.22,0-.34-.12-.46-.31-.09-.12-.19-.25-.25-.4v-.03c-.25-.28-.31-.65-.46-.96-.12-.34-.28-.65-.34-.99-.06-.19-.09-.4-.16-.59,0-.12-.03-.28-.06-.4-.09-.22-.09-.43-.12-.65-.03-.15-.06-.31-.09-.46l-.09-.93c-.03-.34-.09-.65-.12-.96-.03-.15-.03-.28-.06-.43v-.09c-.09-.22-.06-.43-.12-.62-.03-.22,0-.47-.09-.65,0-.37-.16-.74-.19-1.12,0-.25-.03-.5-.09-.78-.03-.25-.03-.53-.06-.78,0-.09-.03-.19-.03-.31-.03-.03-.03-.09-.03-.16-.03-.31-.06-.59-.15-.9-.03-.15-.03-.31-.06-.46,0-.22,0-.43-.09-.65v-.09c-.03-.34-.03-.68-.06-1.02l-.09-.93c-.03-.25-.06-.53-.12-.78-.03-.31-.09-.62-.16-.93-.03-.09-.03-.22-.06-.31-.03-.31-.06-.65,0-.96,0-.12.06-.22.09-.34.03-.03.06-.06.09-.06.12-.06.22-.16.28-.25.03-.06.09-.09.12-.16.09-.09.22-.09.31-.06.03,0,.09.03.09.06.03.16.16.22.25.34.03.06.09.09.09.15.03.19.06.37.09.53l.09.87c.03.25.12.46.15.68.03.15.06.34.06.5,0,.19.06.34.06.53.03,0,.03.03.03.03.03.25.06.5.06.74.03.19.06.37.06.56.03.22.03.43.06.65,0,.19.06.37.06.56,0,.22.06.37.12.56.09.43.16.84.16,1.27,0,.09.03.19.03.28,0,.34.06.65.09.99,0,.25.12.43.12.68.03.22.09.47.09.71.03.28.09.56.12.87,0,.22.06.43.12.65v.16c.03.09.06.19.06.25s.03.12.03.19c0,.25,0,.5.06.74.03.09,0,.22,0,.34,0,.25.09.5.12.77,0,.06.03.15.06.25.03.31.06.62.16.9.09.28.16.56.25.81.03.15.09.28.16.4,0,.03.03.06.06.09.06.06.12.06.16,0l.09-.25c.09-.28.16-.59.22-.87l.19-.78c.06-.31.12-.59.16-.87.03-.12.06-.25.09-.37l.19-.74c.03-.28.12-.53.19-.81l.09-.59c.03-.22.03-.46.09-.68.12-.43.15-.87.28-1.3l.09-.53c.06-.12.06-.25.06-.37.03-.47.12-.93.19-1.4.06-.4.15-.81.25-1.21.03-.22.03-.47.09-.71.03-.22.09-.46.16-.68.03-.19.09-.4.15-.59.03-.12.09-.28.12-.43.03-.03.03-.06.03-.09.06-.22.12-.43.16-.65.03-.19.06-.34.12-.53,0-.03,0-.06.03-.09.06-.22.09-.43.19-.65.06-.15.06-.31.12-.46.06-.37.25-.68.4-.99.03-.03.03-.06.06-.06.16-.12.31-.25.5-.34l.09-.06c.09-.03.19,0,.19.09.03.12.09.19.16.28.06.12.12.22.09.34Z"/><path class="cls-1" d="m134.68,244.55c0-.19.03-.43.03-.68,0-.46-.03-.93-.03-1.43,0-.56,0-1.15.03-1.71.03-.34.09-.65.16-.99v-.19c.03-.16.06-.31.06-.46.03-.03.03-.06.03-.12.03-.31.06-.65.12-.96.06-.15.06-.34.09-.53l.19-.78c.09-.28.19-.56.28-.87l.09-.4c.12-.37.37-.71.53-1.05.09-.19.22-.37.28-.56.12-.28.31-.53.46-.77.16-.25.4-.43.59-.65.03-.03.09-.06.19-.06.06,0,.12-.03.19-.06.09-.06.22-.09.37-.12.4-.03.81-.03,1.21.06.19.03.34.12.5.22.16.12.34.25.46.47l.16.15c.12.09.22.22.28.37.06.12.19.22.25.34.06.06.06.15.09.22.03,0,0,.06.03.06.15.22.19.47.28.68.16.34.25.71.28,1.08.03.22.03.43.12.62,0,0,.03.03,0,.06-.03.12,0,.25.06.37.03.06.03.12.03.19,0,.19,0,.34.06.53.09.22.12.46.16.68v.22c0,.4,0,.81.03,1.24,0,.15.03.34.03.5v.09c-.06.16-.03.34-.03.53,0,.06-.03.12-.03.19l-.09.65s0,.09.03.12v.12c-.06.19,0,.37,0,.56.03.12,0,.28-.03.4-.03.19-.03.4-.03.59,0,.28,0,.53-.03.77,0,.12,0,.22-.03.31,0,.22-.03.46-.06.68l-.09.62c-.03.06-.03.09-.03.16v.12c-.12.34-.12.68-.25,1.02-.09.34-.12.68-.19,1.02-.06.22-.09.43-.22.62-.03.06-.06.09-.06.15-.06.12-.12.25-.25.37l-.22.25c-.03.09-.03.16,0,.25.09.19.06.34-.09.47-.12.09-.19.19-.28.28-.12.12-.28.22-.43.31-.06.03-.16.06-.19.15-.03.06-.06.09-.12.12-.16.06-.25.22-.43.25-.06.03-.09.09-.16.12-.06.06-.12.09-.16.12-.19.15-.4.15-.59.15-.25,0-.5.03-.71-.09-.19-.09-.4-.12-.59-.25t-.03-.03c-.22-.06-.34-.22-.5-.37-.06-.06-.12-.12-.16-.19-.09-.06-.16-.12-.22-.22-.06-.15-.16-.28-.28-.43-.03,0-.06-.03-.06-.06-.12-.25-.28-.5-.4-.71-.19-.31-.25-.65-.28-1.02l-.06-.15c0-.06-.03-.12-.03-.16-.06-.25-.09-.46-.12-.68,0-.06,0-.09-.03-.15l-.03-.22c0-.34-.06-.68-.09-1.02v-.03c0-.46-.03-.93-.03-1.46Zm4.22-10.88c0,.19-.16.34-.31.4-.09,0-.19.03-.25.09-.09.06-.19.19-.25.31-.12.19-.28.37-.34.59,0,.03-.03.06-.06.09-.03.06-.09.09-.12.19-.03.16-.09.37-.22.5v.06l-.19.53c-.06.12-.09.31-.12.47-.03.09-.03.19-.06.28-.06.09-.12.22-.06.34l-.03.12s-.06.06-.06.09c-.09.25-.09.53-.19.77v.06c.03.34-.03.65-.09.96v.25c-.03.22-.06.43-.06.65-.03.06,0,.16-.03.22,0,.03.03.09,0,.16-.03.09-.03.19-.03.28s0,.22-.03.31c0,.28-.03.59-.06.9v1.3c0,.19.09.37-.03.53v.03c.06.09.03.19.03.25-.03.19.03.34.03.53-.03.25.03.46.03.71s0,.5.09.71v.12c-.03.12-.03.25.03.34.03.15.06.28,0,.4-.03,0,0,.03,0,.03,0,.12.03.22.06.34,0,.16.03.31.06.43l.09.65c.09.28.22.59.28.9.06.19.22.37.34.53.15.22.43.25.65.34.19-.03.34-.09.5-.12.03-.03.06-.06.06-.12l.43-.81c.03-.12.06-.22.12-.31.22-.28.34-.62.53-.9.25-.34.34-.74.43-1.15.06-.28.06-.59.19-.87,0-.03,0-.06.03-.09,0-.12.03-.22.03-.34l.09-.46c.03-.31.09-.62.16-.93.03-.22.06-.43.06-.65.03-.12,0-.25.03-.37l.09-.99c.03-.5.03-.99.06-1.49v-.28c.06-.37.09-.74.06-1.15,0-.15-.03-.31-.03-.46-.03-.22.06-.43,0-.68,0-.15.03-.31.03-.47l-.09-.56c-.06-.28-.09-.59-.12-.9,0-.22,0-.43-.03-.65-.06-.31-.16-.65-.19-.96-.03-.31-.16-.53-.37-.74l-.06-.06c-.16-.25-.4-.37-.62-.53-.16-.09-.31-.03-.46.03-.06.03-.09.09-.06.19,0,.03.03.06.03.06Z"/><path class="cls-1" d="m168.93,245.67v-1.43c.09-.25.06-.53.03-.81,0-.22.03-.47.03-.68v-.22c.03-.37.06-.74.06-1.12.03-.34.03-.65.03-.99v-.81c0-.4.06-.81.06-1.21,0-.43,0-.87-.03-1.3,0-.31-.03-.62-.03-.93-.03-.19-.03-.4-.06-.59-.03-.25,0-.46.03-.68,0-.12-.03-.22-.03-.31.06-.37,0-.74,0-1.12.03-.22.03-.46.06-.68,0-.19.03-.19.25-.19.06-.03.12-.03.19-.06.19-.09.37-.06.56-.03.03,0,.06.03.09.06.09.22.28.4.34.65,0,.12.03.25-.03.37-.03.06-.06.12-.06.19v1.4c.03.19.06.37.06.56,0,.09.03.19.03.28.03.28.03.59.06.87v.84c.03.22-.03.43,0,.68v.06c-.09.15-.06.31-.06.46,0,.19-.03.37-.03.59s-.03.43,0,.65c.03.03.03.06.03.09-.03.16-.03.28-.03.43.03.22,0,.43-.03.65s0,.47,0,.68c0,.31,0,.65-.03.96v.81c-.03.15.03.28,0,.43-.03.28,0,.53,0,.81-.03.19.03.34-.03.5,0,.06,0,.09.03.15v.12c-.09.25-.03.47-.03.68-.03.22,0,.46-.09.65v.09c0,.22.03.43.06.68,0,.06,0,.15-.03.25v.47c-.03.09-.03.15-.03.22,0,.03-.03.06,0,.06.06.19-.03.37,0,.59.03.15,0,.34-.03.5,0,.22.03.4.03.59,0,.16.06.31-.03.46.03.25-.12.43-.31.62-.06.03-.12.09-.16.16-.06.06-.12.06-.19.03-.16-.12-.34-.22-.46-.37-.06-.12-.09-.25-.12-.37-.03-.03-.03-.09-.03-.12-.12-.12-.09-.25-.06-.4.03-.16,0-.28,0-.43-.03-.37-.06-.77-.06-1.15,0-.16-.03-.28,0-.43,0-.37-.06-.4-.37-.34-.28,0-.53.03-.81.06h-1.15c-.25-.03-.5-.06-.71-.06-.31-.03-.62-.06-.93,0-.06.03-.16,0-.22,0s-.16,0-.22.03c-.19.09-.4.06-.62.09-.22,0-.43,0-.62.06-.06.03-.12.03-.19.03s-.12.03-.19.06c-.09,0-.12.06-.12.15v.9c0,.16,0,.31-.03.5,0,.03,0,.09.03.16.09.31.06.62,0,.93,0,.03-.03.09-.09.15l-.19.16c-.03.06-.09.12-.16.19,0,.03,0,.06-.03.06-.12.22-.34.25-.53.09l-.28-.28c-.12-.12-.25-.28-.25-.5,0-.31-.06-.59-.09-.9,0-.06,0-.09-.03-.16,0-.03-.03-.09,0-.12.03-.25-.03-.5-.03-.71.03-.22-.03-.43-.06-.65v-.12c0-.56-.12-1.05-.22-1.58-.06-.19-.06-.34-.06-.53v-.78c.03-.37.06-.71.03-1.08-.03-.37,0-.74-.03-1.12,0-.53.03-1.05.03-1.61v-.87c0-.19.03-.37.03-.56.03-.25.03-.5.06-.71.03-.25.03-.5,0-.74,0-.12,0-.28.03-.43.03-.37.09-.71.16-1.09.03-.31.03-.62.03-.96.03-.34,0-.71,0-1.05.03-.4.06-.81.09-1.18v-.5c0-.12-.06-.25-.09-.37-.06-.19.06-.28.16-.4.03-.06.09-.03.12,0,.09.03.15.03.22-.03.19-.09.37-.19.56-.22.09,0,.12.03.16.09.09.09.19.19.31.25.12.06.19.15.15.28,0,.03,0,.09.03.15,0,.16-.03.31-.16.4-.03.06-.03.09-.03.19.03.09.03.22.03.34s0,.28-.03.4c-.03.71,0,1.43,0,2.14,0,.16-.03.34-.06.5l-.09.59c0,.06,0,.12-.03.19-.06.19-.06.4-.03.59.03.06.03.09.03.12-.06.12-.03.22,0,.31,0,.03.03.03.03.06-.03.25-.06.53-.06.78v.16c-.03.12-.03.28-.03.4-.03.03-.03.06-.03.09.03.15.03.31-.06.46,0,.06.03.16.06.22.06.22.06.43-.03.65-.06.16,0,.31,0,.46,0,.09.03.19.03.25,0,.19.03.37.03.56,0,.15-.03.34-.03.5,0,.25,0,.46.03.71,0,.28.03.56,0,.84-.03.25.03.5.03.74.03.03.03.06.03.12,0,.25.03.5.09.74.03.16.06.28.06.43.03.12.06.12.19.12.25.03.47,0,.71-.06.15-.03.31,0,.5,0,.09-.03.19-.03.28-.06h.16c.28-.03.56-.03.84-.03.43,0,.84.03,1.24.06.28.03.56.03.81.03.5,0,.99-.06,1.46-.12.16,0,.19-.06.19-.19v-1.36h.03Z"/><path class="cls-1" d="m182.08,246.56s-.03.06-.03.09c.06.31,0,.62,0,.93,0,.25,0,.5-.09.74-.06.19-.06.4-.03.59.03.06.03.12.03.19,0,.03-.03.06,0,.06.12.19,0,.34-.06.5-.03.06,0,.15-.03.25l-.09.74s-.03.03-.03.03c.09.28-.09.53-.09.78,0,.09-.06.19-.16.25-.06.03-.15.03-.25.06-.19-.12-.5-.15-.59-.43-.06-.12-.12-.25-.16-.37v-.03c.03.06.03.09,0,0,0-.06-.03-.12-.06-.19v.06c-.03-.09-.06-.25-.16-.46,0-.22.03-.4.03-.59,0-.09,0-.16.03-.22,0-.19,0-.34.03-.53.03-.16.03-.31,0-.47v-.12c0-.09.03-.15,0-.25v-.09c0-.15.03-.31.03-.5,0-.15-.06-.25-.25-.28,0,0,0-.03-.03,0-.22.03-.46,0-.68.06-.09.03-.19.06-.28.03-.22-.03-.43-.06-.65,0h-.06c-.37.03-.78.03-1.18.03-.09,0-.19,0-.28.03-.16,0-.28.16-.28.31.06.25,0,.5,0,.74.03.31.03.62.06.96v.84c-.09.19-.03.4-.06.62-.03.16-.06.34-.16.5-.09.16-.19.19-.37.16-.31-.03-.46-.22-.59-.5,0-.03-.03-.09-.06-.12-.12-.16-.15-.34-.15-.5-.03-.22,0-.43,0-.62v-.12c-.03-.19-.06-.4-.09-.59v-.81c-.03-.37-.03-.74-.03-1.15,0-.31,0-.62.03-.93v-.5c0-.25,0-.5.06-.74v-.09c0-.37.09-.74.16-1.09.03-.34.12-.65.15-.96.03-.22.06-.43.06-.62.03-.09.03-.19.06-.28.03-.19.06-.34.06-.53s.06-.37.09-.56c.03-.19.09-.37.12-.56l.16-.81c.03-.22.09-.43.16-.65.06-.22.09-.43.15-.65,0-.06.03-.12.03-.19.03-.03.03-.09.03-.12,0-.43.12-.87.25-1.27.09-.4.22-.77.34-1.18.06-.25.19-.5.28-.74l.28-.65c.12-.22.22-.43.34-.65.03-.09.09-.19.09-.31,0-.09.06-.19.19-.25.15-.06.28-.19.4-.28.12-.09.22-.12.34-.12.15,0,.31-.03.46,0,.06,0,.09.03.12.06.12.22.28.43.4.62.12.15.15.31.25.46,0,.06.03.12.06.16.16.22.22.46.28.71.03.12.09.22.12.34.16.37.28.74.34,1.15.03.22.03.46.12.68.06.19.06.37.09.56l.22,1.24c.03.28.06.53.09.78l.09.62c.03.28.09.53.12.77v.4c0,.37.03.71.09,1.05v.46c0,.28-.03.56.03.84v.22c0,.19.03.37.03.56v.19c-.06.28-.03.53,0,.81.03.16,0,.34-.03.5,0,.12-.03.28.03.43.06.15.06.31.03.5Zm-5.52-15.75c-.03-.09-.03-.19-.03-.28,0-.06.03-.12.09-.16.09-.16.22-.25.34-.37,0-.03.03-.06.03-.06.06-.22.25-.31.43-.37.09-.06.22-.06.28.03l.12.09c.03.06.09.09.06.19v.06c.12.06.06.15.09.25,0,.03-.03.09,0,.12.03.15-.06.25-.16.34-.03.03-.09.03-.09.06-.06.12-.16.19-.28.25-.12.06-.22.12-.34.16-.09.06-.22.03-.31-.03-.03-.03-.06-.06-.09-.06-.12-.03-.16-.12-.16-.22Zm3.88,15.13v-.34c.03-.22.06-.43.06-.65s-.03-.43-.06-.65c0-.25.03-.5,0-.74,0-.34.03-.68-.03-.99,0-.09,0-.19.03-.28v-.28c0-.28-.03-.56-.03-.84v-.62c.03-.22-.03-.4-.09-.62-.06-.22-.09-.46-.12-.71-.03-.31,0-.65-.09-.96-.09-.28-.09-.56-.16-.84-.06-.34-.09-.65-.19-.99-.06-.28-.12-.59-.22-.87l-.28-.77c-.06-.19-.09-.4-.22-.59-.03-.06-.06-.15-.16-.15-.12,0-.12.09-.15.19-.03.03-.03.09-.03.12l-.09.28c-.22.46-.37.96-.47,1.46-.03.22-.09.43-.15.65-.09.31-.25.62-.22.96,0,.12-.06.28-.03.43,0,.22-.06.43-.12.62,0,.06-.03.12-.03.15-.06.31-.09.62-.16.93-.06.28-.12.59-.12.9-.03.22-.06.47-.03.71v.09c-.06.09-.06.19-.06.28l-.03.31c-.03.31-.06.62-.09.96-.03.22-.03.43-.09.65-.09.22-.06.43-.12.65-.06.19-.06.43-.06.65-.03.28-.03.53-.06.81,0,.09,0,.16.06.19.22.15.43.31.71.31.25-.03.5-.03.78-.03l.12.03c.28-.03.53,0,.81-.03.28-.03.56-.06.84-.06h.12c.22-.06.28-.16.25-.31Zm-.19-15.19c-.03-.16,0-.31.06-.43,0-.06.03-.09.06-.12.16-.15.31-.31.47-.43.09-.09.19-.16.28-.22.09-.03.25-.03.31.06.12.16.31.31.25.56v.09c.03.22-.06.43-.19.62-.06.16-.22.19-.37.22-.06,0-.09.03-.12.06-.06.06-.15.12-.22.15-.12.06-.28.03-.37-.06-.16-.12-.19-.31-.16-.5Zm.25,20.18s-.03-.09-.06-.12c.03.06.06.09.06.12Z"/><path class="cls-1" d="m194.42,237.91v.84c-.03.06-.03.15-.06.22-.03.19-.09.37-.12.53-.06.19-.12.34-.16.53-.06.12-.15.28-.12.43,0,.03-.03.06-.03.09-.12.12-.19.28-.25.43-.19.37-.37.71-.62,1.05-.09.12-.22.25-.31.4-.19.22-.37.46-.56.71-.09.12-.22.22-.31.31-.19.22-.34.47-.56.62l-.65.56s-.06.06-.09.06c-.22,0-.31.15-.47.22-.12.06-.12.12-.09.25.03.03.03.09.06.12.15.15.22.37.4.5.03.03.03.06.03.06.09.22.28.37.43.53.03.03.09.06.12.12.09.19.25.31.37.46.15.12.31.28.46.43.12.12.28.25.4.37l.19.09c.22.09.46.16.71.25l.47.19c.06.03.12.06.15.09.06.09.06.19-.03.25-.25.15-.5.28-.81.22-.03-.03-.06,0-.09,0-.19.09-.37.09-.59.06-.16-.03-.34-.06-.53-.12-.25-.09-.43-.25-.62-.4-.03-.06-.06-.09-.12-.12-.19-.09-.31-.28-.46-.43-.16-.19-.34-.4-.5-.59l-.25-.28c-.09-.12-.22-.25-.34-.37-.03-.03-.06-.06-.06-.12-.09-.31-.34-.56-.53-.84-.06-.06-.09-.09-.16-.12-.09-.06-.19-.03-.22.06v.15c.03.12.06.28.06.4v1.95c0,.25.03.47.09.71.06.15.06.34.06.53l.09,1.52c0,.19-.03.4-.03.62-.03.12-.12.19-.28.22l-.31.09c-.31.09-.56.03-.71-.28-.03-.12-.06-.25-.12-.37v-.06c-.19-.28-.06-.62-.19-.93v-.12s.03-.06.03-.09c-.03-.22-.03-.43,0-.65,0-.19-.03-.37-.06-.59v-.43c-.03-.16-.06-.31-.06-.46-.03-.25-.03-.53-.03-.78v-1.86c0-.12-.03-.28-.06-.43v-.28c0-.43-.06-.87-.09-1.33v-.43c0-.19,0-.37-.06-.56-.03-.06-.03-.09-.03-.15.03-.37,0-.74-.03-1.12-.03-.19,0-.34,0-.5v-.65c0-.31.03-.65.03-.96v-.87c0-.31,0-.62.06-.9.06-.28.03-.56.03-.84,0-.09,0-.22.03-.31.03-.31.03-.62.03-.93,0-.16.03-.31.06-.47v-.06c0-.59,0-1.15.03-1.71v-.34c0-.19.06-.25.25-.25.34,0,.68.03.99.03.25,0,.5,0,.74.03.19,0,.37.03.56.03.16.03.31.03.47.03.34-.03.65.06.96.19.12.03.22.12.34.16.5.22.96.5,1.33.9.19.22.4.47.62.68l.09.19c.12.15.25.34.34.5.06.09.09.15.12.25l.28.62c.03.06.03.15.06.25l.09.34s0,.06.03.12c.06.5.12.99.06,1.55Zm-1.61-1.18c0-.19-.03-.34-.06-.53,0-.12-.03-.25-.06-.37,0-.28-.09-.53-.25-.78-.03-.06-.09-.15-.12-.25-.09-.12-.16-.25-.25-.34-.09-.06-.19-.12-.25-.19-.22-.28-.5-.5-.84-.62-.09-.03-.19-.03-.25-.06-.22-.03-.43-.03-.65-.06-.34-.03-.68-.12-1.02-.06h-.09c-.25-.03-.37.09-.37.34v.68c0,.28-.03.56-.06.84,0,.31,0,.65-.03.99v.43c-.03.22-.06.43-.06.65-.03.59-.06,1.18-.06,1.77-.03.06,0,.12,0,.19v.15c0,.25,0,.47-.03.71,0,.06.03.12.03.19-.06.31,0,.62-.03.93v1.05l.03.31c.03.19.03.4.03.59.03.22,0,.43.06.68.03.09.09.12.22.06.03,0,.06-.03.09-.09.09-.09.22-.19.34-.25.09-.06.19-.12.25-.22.09-.12.22-.22.34-.28.25-.15.43-.4.65-.59.06-.06.12-.12.16-.19.12-.25.31-.43.5-.65.03-.03.06-.06.09-.12.09-.16.19-.31.28-.43.06-.09.12-.19.19-.28l.46-.81c.09-.12.16-.25.19-.4.03-.15.09-.31.16-.43.03-.09.12-.16.12-.25.06-.34.28-.65.19-.99l.03-.03c.06-.43.12-.87.09-1.3Zm.12,4.62s0,.03.03.03c0,0,0-.03.03-.03-.03,0-.03-.03-.03-.03-.03,0-.03.03-.03.03Z"/><path class="cls-1" d="m207.87,234.22q0,.12-.12.09c0,.09,0,.19-.03.28-.03.06-.12.06-.16.12-.03.06.03.12-.03.22-.06.06-.09.16-.12.22-.03.09,0,.19-.09.25v.12c0,.12-.03.22-.06.31-.09.25-.12.5-.25.71-.12.31-.16.62-.28.93t-.03.06c-.12.09-.12.22-.16.34-.03.15-.12.25-.12.4,0,.09-.03.19-.06.28-.03.03-.06.06-.06.09-.03.03-.06.06-.03.09.03.19-.06.34-.09.5-.03.06-.06.15-.12.25-.03.12-.09.25-.16.37-.03.03-.03.06-.03.09,0,.22-.09.4-.19.62-.09.22-.12.46-.28.68v.09c-.03.31-.16.62-.28.9-.09.16-.15.34-.22.53-.12.31-.22.62-.31.93-.06.12-.09.28-.12.43l-.06.09s-.06.06-.06.09c0,.31-.19.56-.25.84,0,.03,0,.06-.03.09-.12.16-.12.34-.19.5-.09.16-.09.34-.25.43-.03.19-.15.28-.25.43v.03c0,.19-.09.34-.12.5-.03.15-.06.31-.19.43-.03,0-.03.03-.03.06s0,.09-.03.12c-.09.09-.12.28-.25.37-.03.03-.06.06-.06.09-.03.19-.12.34-.25.43-.06.06-.09.12-.12.19-.03.09-.06.22-.22.25-.03,0-.09.03-.09.06-.03.09-.12.15-.09.28,0,0,0,.03-.03.03-.12.06-.12.22-.19.31l-.22.31c-.06.09-.03.12.06.12.22,0,.46,0,.68-.03.12,0,.25-.03.34-.03h.06c.19-.09.4-.06.62-.06.12,0,.28,0,.4.03.16,0,.31.03.43.03.4,0,.78-.03,1.15,0,.22.03.47.09.62.25.16.15.25.34.19.56-.03.16-.03.28-.03.43,0,.06,0,.15-.06.25-.09.15-.28.22-.5.15-.09-.03-.22-.06-.31-.06-.06.03-.12,0-.19-.03-.09-.06-.19-.06-.31-.06-.28.03-.56-.03-.84-.09-.12-.06-.28-.06-.4-.03-.16.03-.31.03-.46.06-.12.03-.25-.03-.37.06-.03,0-.09-.03-.16-.06h-.12c-.31.09-.59.09-.9.03-.06-.03-.12-.03-.22,0-.06.06-.16.06-.22.06h-.62c-.12,0-.28.03-.43.03-.09,0-.22.03-.31-.03-.06-.03-.16,0-.22,0-.25,0-.28-.03-.25-.25v-.15c0-.19.09-.34.25-.47.25-.15.43-.4.56-.68.09-.22.19-.4.31-.62.06-.12.19-.22.28-.34,0-.03.03-.06.06-.09.06-.28.31-.46.4-.74.03,0,.03-.03.06-.06.06-.03.12-.06.09-.19l.03-.03c.16-.19.22-.43.31-.62.09-.15.15-.34.25-.53.06-.19.15-.4.25-.62.09-.25.28-.43.28-.71,0-.03.03-.09.06-.12.06-.06.12-.15.09-.28,0,0,0-.03.03-.03.12-.22.15-.5.25-.74.06-.22.15-.43.22-.65.09-.25.22-.5.31-.71l.09-.37c0-.09.03-.19.09-.28.06-.15.06-.37.22-.5-.03-.12.06-.25.09-.37.09-.22.12-.46.25-.68.09-.25.15-.5.31-.71v-.12c0-.15.03-.28.12-.4.03-.03.03-.09.03-.16.03-.06.03-.12.06-.19.06-.22.16-.4.25-.62.03-.03.03-.09.03-.12.03-.34.16-.62.25-.93.06-.22.16-.4.22-.62.06-.22.16-.43.25-.65.06-.19.09-.37.22-.53v-.09c0-.15.03-.31.09-.43.03-.25.09-.5.16-.71.03-.19,0-.25-.19-.31-.19-.09-.37-.06-.56-.19-.06-.03-.16,0-.22.03-.16.06-.34.06-.5.06h-.5s-.06,0-.09-.03c-.12-.09-.25-.06-.37,0-.06.03-.12,0-.19.03h-.19c-.12.03-.25.06-.37.06h-.06c-.43.16-.87.09-1.3.09-.06,0-.12,0-.16.03-.12.09-.25.09-.43.06-.16-.03-.28-.09-.37-.22-.09-.06-.16-.15-.22-.22-.03-.03-.06-.09-.06-.12-.03-.12-.03-.22-.06-.31,0-.09.03-.12.09-.19.15-.09.28-.22.4-.31l.16-.09c.19-.09.37-.19.56-.28h.09c.22,0,.4,0,.62-.03.28-.03.56.03.81-.06.12-.03.28-.03.4-.03.28,0,.56.03.84,0,.31-.03.59-.03.9-.03.28,0,.56.03.81.03.06,0,.12.03.16.06.15.06.31.16.43.25.22.16.46.28.74.25.12,0,.22.09.25.22.03.09.16.31.22.34.16.19.28.37.28.59Zm-1.71.5s-.03-.03-.03,0,0,.03.03.03v-.03Z"/><path class="cls-1" d="m212.58,247.8c0-.43-.03-.84-.03-1.27,0-.09.03-.19.03-.28v-.16c-.06-.28-.06-.56,0-.84v-.03c-.03-.59.03-1.15,0-1.71,0-.22.06-.43.06-.65,0-.19.09-.4.03-.62-.03-.09.03-.22.03-.34,0-.31.03-.62.06-.9,0-.31.03-.59,0-.9,0-.19.03-.37.06-.56,0-.06.03-.12.03-.22.03-.22.03-.43.06-.65v-.19c0-.34.03-.68.09-.99.03-.15,0-.31,0-.47.03-.37.06-.74.15-1.08v-.37c-.03-.34.06-.65.12-.96.03-.12.06-.25.06-.37,0-.25,0-.5.06-.71.03-.12,0-.28,0-.4v-.34c.03-.19.09-.25.28-.25.12,0,.25.03.37.09.06.09.16.09.25.06h.19c.06,0,.15-.03.22-.03h.84s.06,0,.09.03c.25.09.53.06.78.03.19-.03.37-.03.56-.06.22-.03.46-.06.68-.06.34-.03.65-.03.96-.03.25.12.53.12.65.4,0,.03.06.09.09.12.12.12.16.31.09.46-.03.16-.09.31-.19.43-.03.09-.09.12-.19.12s-.19,0-.25-.06c-.22-.12-.43-.06-.62-.06-.12,0-.25,0-.37-.03s-.25-.03-.37,0c-.28.03-.56,0-.81.12h-.12c-.19-.03-.37,0-.56-.09-.06-.03-.09-.03-.16-.03-.16.03-.31.03-.5.03-.22,0-.46.03-.71.06-.09,0-.16.06-.16.12,0,.12-.09.28-.03.4.03.06.03.09.03.12-.06.19-.03.4-.09.59-.03.09-.03.22-.03.31,0,.15-.09.28-.09.43,0,.12-.03.25-.03.34,0,.22-.03.43,0,.65,0,.06,0,.16-.03.25-.06.19-.12.37-.09.59,0,.09-.03.19-.03.31v.06c.03.22,0,.43,0,.65,0,.12.03.16.16.12.4-.06.84-.09,1.24-.12.12,0,.28-.03.4-.03.16,0,.31-.03.43-.03.37-.03.74-.03,1.08-.03.16-.03.31.03.43.09.22.09.37.25.5.4s.19.31.09.5c-.06.19-.15.28-.25.43-.06.09-.15.12-.25.09-.03-.03-.06-.03-.09-.03-.16-.19-.37-.19-.59-.19-.19.03-.37,0-.56,0-.09,0-.19.03-.25.03-.06.03-.12.03-.19.03-.09-.03-.22-.06-.31-.03-.06.03-.15.03-.22.03-.19,0-.34.03-.53.03-.25.03-.46.03-.71.06-.19,0-.34.12-.46.22-.09.06-.09.15-.09.22,0,.22-.03.43,0,.62v.15c.06.12.06.22.03.37-.03.28-.06.53-.09.81v.16c.06.09.06.22.03.31-.06.25-.06.47-.03.71,0,.09-.03.15-.03.25v.71c0,.12.03.22.06.34.06.16-.09.28-.03.43.09.15.03.28.03.4,0,.22,0,.43.03.62.03.16.03.28,0,.4-.03.12-.06.25.03.37v.09c-.09.12-.06.25-.03.4,0,.31.03.62.03.93,0,.12,0,.22.03.31.09.22.06.4.06.62,0,.12,0,.25.03.37v.28c0,.15.06.25.25.25.28-.03.56-.03.87-.06.19,0,.4.03.62,0,.4,0,.84-.03,1.27-.09.25-.06.5-.12.74-.25.16-.06.28-.16.43-.19.15-.03.31,0,.43,0,.09,0,.16.06.25.06.16.06.31.09.43.22.06.06.16.12.25.19.06.06.09.12.06.22-.06.19-.09.37-.16.56-.03.09-.09.19-.19.25-.12.12-.19.12-.34,0-.16-.09-.31-.09-.47-.03l-.68.28c-.16.06-.31.06-.47.06-.15.03-.28,0-.43,0h-.09c-.4.12-.81.09-1.24,0h-.22c-.28.06-.59.06-.9.06h-.09c-.15-.12-.31-.06-.43,0s-.25.03-.37-.03l-.03-.03-.46-.53s-.03-.03-.03-.06c-.03-.22-.09-.4-.16-.62l-.12-.68c-.03-.31-.09-.59-.09-.9,0-.28-.06-.56-.09-.84,0-.12-.03-.28-.03-.4Z"/><path class="cls-3" d="m82.97,180.14h-35.15v2.22h4.26c1.83,0,2.74.68,2.74,2.04v34.39c0,1.52-.85,2.28-2.57,2.28h-4.43v2.22h20.78v-2.22h-4.49c-1.13,0-1.93-.19-2.4-.58-.46-.39-.7-1.07-.7-2.05v-16.46h3.68c4.59,0,6.89,2.99,6.89,8.99h2.1v-19.5h-2.1c0,2.72-.59,4.79-1.78,6.21-1.19,1.43-2.89,2.14-5.11,2.14h-3.68v-15.59c0-1.25.65-1.87,1.93-1.87h6.89c3.78,0,6.5.99,8.17,2.98,1.48,1.75,2.65,5,3.51,9.75h2.04l-.58-14.95Z"/><path class="cls-3" d="m83.43,179.66h-36.09v3.18h4.74c2.01,0,2.26.83,2.26,1.56v34.39c0,.84-.23,1.81-2.09,1.81h-4.91v3.17h21.74v-3.17h-4.97c-1.01,0-1.72-.16-2.09-.47-.36-.3-.54-.87-.54-1.69v-15.99h3.21c4.32,0,6.42,2.79,6.42,8.52v.48h3.04v-20.46h-3.04v.48c0,2.6-.57,4.58-1.68,5.91-1.1,1.32-2.65,1.97-4.74,1.97h-3.21v-15.12c0-.98.44-1.39,1.46-1.39h6.89c3.61,0,6.24.94,7.81,2.81,1.42,1.67,2.56,4.88,3.4,9.52l.07.39h2.93l-.61-15.9Zm-22.9,4.57v16.07h4.16c2.36,0,4.2-.78,5.47-2.31,1.19-1.42,1.82-3.45,1.89-6.04h1.15v18.54h-1.15c-.12-5.96-2.6-8.99-7.36-8.99h-4.16v16.94c0,1.11.3,1.92.88,2.42.56.46,1.44.69,2.7.69h4.02v1.26h-19.84v-1.26h3.96c1.96,0,3.04-.98,3.04-2.76v-34.39c0-1.15-.55-2.51-3.21-2.51h-3.79v-1.27h34.22l.55,13.99h-1.15c-.88-4.66-2.04-7.79-3.55-9.58-1.75-2.09-4.62-3.14-8.53-3.14h-6.89c-1.55,0-2.41.83-2.41,2.34Z"/><path class="cls-3" d="m108.4,196.81c-.88-.92-2.06-1.37-3.54-1.37-2.18,0-4.01.91-5.48,2.74-1.48,1.83-2.77,4.59-3.86,8.29v-11.03l-9.81.46v2.11h2.4c2.21,0,3.32,1.26,3.32,3.79v17.4c0,1.25-.95,1.87-2.86,1.87h-2.68v2.22h16.99v-2.22h-3.5c-2.07,0-3.1-.68-3.1-2.04v-5.84c0-3.62.87-7.06,2.6-10.31,1.73-3.25,3.43-4.87,5.11-4.87.15.04.25.05.29.05.16.08.23.16.23.24,0,.11-.13.47-.4,1.05-.28.58-.41,1.15-.41,1.69,0,.98.26,1.76.78,2.37.53.6,1.22.9,2.08.9.93,0,1.69-.35,2.27-1.05.59-.7.88-1.59.88-2.68,0-1.6-.44-2.86-1.31-3.77Z"/><path class="cls-3" d="m108.74,196.48c-.96-1.01-2.27-1.52-3.88-1.52-2.33,0-4.3.99-5.85,2.92-1.11,1.38-2.12,3.27-3.01,5.65v-8.59l-10.77.51v3.04h2.88c1.94,0,2.84,1.05,2.84,3.31v17.4c0,.38,0,1.4-2.38,1.4h-3.15v3.17h17.94v-3.17h-3.98c-2.63,0-2.63-1.14-2.63-1.57v-5.84c0-3.52.86-6.92,2.55-10.09,1.61-3.02,3.17-4.58,4.63-4.61h.03c-.05.14-.14.35-.28.65-.3.63-.45,1.27-.45,1.9,0,1.08.3,1.98.89,2.68.63.71,1.44,1.07,2.44,1.07,1.08,0,1.96-.42,2.63-1.22.66-.78,1-1.79,1-2.99,0-1.72-.49-3.1-1.45-4.1Zm-2.18,7.35c-.72,0-1.28-.24-1.72-.73-.45-.52-.66-1.2-.66-2.06,0-.49.12-.98.36-1.49.44-.95.44-1.15.44-1.25,0-.19-.08-.46-.49-.66l-.2-.06s-.06,0-.18-.03h-.12c-1.89-.01-3.7,1.66-5.53,5.11-1.76,3.31-2.66,6.85-2.66,10.53v5.84c0,1.15.62,2.52,3.58,2.52h3.02v1.26h-16.03v-1.26h2.2c2.76,0,3.33-1.28,3.33-2.35v-17.4c0-3.52-2.06-4.26-3.79-4.26h-1.92v-1.19l8.85-.41v13.82l.94-3.16c1.06-3.61,2.33-6.34,3.77-8.12,1.39-1.73,3.06-2.57,5.11-2.57,1.36,0,2.41.4,3.2,1.23.78.82,1.17,1.97,1.17,3.44,0,.98-.25,1.76-.77,2.38-.49.59-1.11.87-1.9.87Z"/><path class="cls-3" d="m142.82,221.07c-2.18,0-3.27-1.05-3.27-3.15v-22.48l-9.64.46v2.11c1.64,0,2.84.2,3.62.61.78.41,1.17,1.2,1.17,2.36v10.28c0,2.61-.77,4.82-2.31,6.63-1.53,1.81-3.37,2.71-5.51,2.71-1.79,0-3.24-.63-4.35-1.89-1.11-1.27-1.67-2.99-1.67-5.17v-18.1l-9.69.46v2.11c1.56,0,2.75.21,3.59.64.84.43,1.26,1.21,1.26,2.33v11.92c0,3.54.76,6.23,2.27,8.08,1.52,1.85,3.68,2.78,6.48,2.78,1.72,0,3.4-.5,5.06-1.49,1.65-1,3.29-2.45,4.93-4.35l.58,5.37,9.23-.23v-1.99h-1.75Z"/><path class="cls-3" d="m142.82,220.6c-1.91,0-2.8-.85-2.8-2.68v-22.98l-10.58.51v3.04h.47c1.55,0,2.7.18,3.4.55.62.32.92.96.92,1.94v10.28c0,2.48-.74,4.61-2.2,6.32-1.45,1.71-3.13,2.54-5.15,2.54-1.66,0-2.97-.56-3.99-1.72-1.03-1.18-1.56-2.82-1.56-4.86v-18.6l-10.64.51v3.04h.48c1.48,0,2.61.19,3.37.58.68.35,1,.97,1,1.91v11.92c0,3.63.8,6.45,2.38,8.38,1.61,1.96,3.92,2.96,6.85,2.96,1.79,0,3.57-.53,5.31-1.56,1.44-.88,2.89-2.1,4.32-3.65l.51,4.75,10.13-.26v-2.92h-2.22Zm1.27,2l-8.32.2-.66-6.02-.71.83c-1.6,1.86-3.22,3.29-4.81,4.25-1.61.96-3.18,1.43-4.82,1.43-2.64,0-4.69-.88-6.11-2.61-1.44-1.76-2.16-4.38-2.16-7.78v-11.92c0-1.63-.83-2.4-1.52-2.75-.82-.42-1.92-.65-3.33-.69v-1.19l8.73-.41v17.6c0,2.28.61,4.13,1.79,5.48,1.2,1.36,2.79,2.06,4.71,2.06,2.28,0,4.26-.97,5.87-2.88,1.61-1.89,2.43-4.23,2.43-6.94v-10.28c0-1.35-.48-2.28-1.43-2.78-.77-.41-1.87-.62-3.36-.66v-1.19l8.68-.41v21.98c0,2.37,1.3,3.63,3.75,3.63h1.27v1.05Z"/><path class="cls-3" d="m180.59,208.34c-1.36,8.95-5.87,13.43-13.54,13.43-4.21,0-7.45-1.62-9.72-4.87-2.28-3.25-3.42-8.01-3.42-14.28,0-14.13,4.11-21.2,12.32-21.2,6.31,0,10.78,5.08,13.43,15.24h1.93l-.7-17.4h-1.87l-2.05,4.21c-1.94-1.48-3.77-2.57-5.48-3.27-1.72-.7-3.55-1.05-5.49-1.05-5.45,0-10.06,2.26-13.81,6.8-3.76,4.53-5.64,10.11-5.64,16.73,0,6.23,1.9,11.37,5.7,15.44,3.79,4.07,8.51,6.1,14.16,6.1,4.51,0,8.21-1.39,11.09-4.17,2.88-2.78,4.61-6.69,5.2-11.71h-2.11Z"/><path class="cls-3" d="m180.18,207.86l-.06.41c-1.33,8.76-5.61,13.02-13.07,13.02-4.09,0-7.14-1.52-9.33-4.66-2.21-3.16-3.33-7.87-3.33-14.01,0-13.75,3.98-20.73,11.84-20.73,6.03,0,10.39,5.01,12.97,14.89l.09.36h2.79l-.73-18.35h-2.63l-1.93,3.96c-1.79-1.33-3.51-2.33-5.12-2.99-1.77-.72-3.68-1.09-5.67-1.09-5.58,0-10.35,2.35-14.18,6.98-3.81,4.59-5.75,10.32-5.75,17.03,0,6.32,1.97,11.62,5.83,15.76,3.87,4.15,8.75,6.26,14.51,6.26,4.62,0,8.46-1.45,11.42-4.31,2.94-2.84,4.74-6.88,5.34-11.99l.06-.54h-3.05Zm-13.77,15.89c-5.49,0-10.14-2.01-13.81-5.95-3.7-3.96-5.58-9.05-5.58-15.12,0-6.48,1.87-12.01,5.54-16.43,3.63-4.4,8.15-6.63,13.44-6.63,1.87,0,3.66.35,5.31,1.02,1.67.68,3.48,1.76,5.37,3.21l.46.35,2.18-4.46h1.11l.67,16.44h-1.07c-2.72-10.11-7.36-15.24-13.8-15.24-8.49,0-12.79,7.3-12.79,21.68,0,6.34,1.17,11.24,3.5,14.55,2.35,3.37,5.75,5.08,10.11,5.08,7.78,0,12.47-4.52,13.95-13.44h1.16c-.63,4.65-2.31,8.31-4.99,10.9-2.77,2.68-6.4,4.04-10.76,4.04Z"/><path class="cls-3" d="m223.45,183.2c.31-.56,1.07-.84,2.28-.84h3.39v-2.22h-18.34v2.22h3.1c1.36,0,2.2.21,2.51.64s.46,1.42.46,2.98v13.31h-.5v2.86h.5v15.07c0,1.75-.22,2.83-.67,3.24-.44.41-1.21.61-2.3.61h-3.1v2.22h18.34v-2.22h-3.04c-1.52,0-2.47-.39-2.86-1.17-.16-.31-.23-1.15-.23-2.51v-31.06c0-1.52.15-2.56.46-3.13Zm-25.86-.17c.31-.45,1.1-.67,2.39-.67h3.33v-2.22h-18.39v2.22h3.09c1.32,0,2.14.22,2.45.67s.47,1.43.47,2.95v31.24c0,1.63-.21,2.68-.61,3.15-.41.47-1.05.7-1.9.7h-3.5v2.22h18.39v-2.22h-3.86c-1.09,0-1.79-.43-2.1-1.28-.15-.43-.23-1.23-.23-2.4v-15.24h.43v-2.86h-.43v-13.31c0-1.52.15-2.5.47-2.95Z"/><path class="cls-3" d="m223.87,183.43c.27-.49,1.16-.59,1.86-.59h3.87v-3.18h-19.3v3.18h3.58c1.68,0,2.05.33,2.12.44.14.19.38.8.38,2.7v12.83h-.03v4.62l.03,13.79c0,2.18-.37,2.75-.52,2.89-.34.32-1.03.49-1.98.49h-3.58v3.17h19.3v-3.17h-3.52c-1.31,0-2.13-.31-2.44-.92-.05-.1-.17-.53-.17-2.29v-31.06c0-1.43.13-2.41.4-2.9Zm4.78,39.38h-17.4v-1.26h2.63c1.23,0,2.09-.25,2.62-.74.56-.51.83-1.65.83-3.59v-15.55h-.48l-.02-1.9h.5v-13.79c0-1.7-.18-2.74-.55-3.26-.42-.57-1.34-.83-2.9-.83h-2.63v-1.27h17.4v1.27h-2.92c-1.41,0-2.29.35-2.7,1.08-.35.64-.51,1.74-.51,3.36v31.06c0,1.92.14,2.46.27,2.72.48.95,1.59,1.44,3.29,1.44h2.57v1.26Zm-30.67-39.51c.12-.17.54-.46,2-.46h3.81v-3.18h-19.35v3.18h3.57c1.57,0,1.96.32,2.06.46.14.21.38.83.38,2.68v31.24c0,1.96-.31,2.62-.49,2.84-.31.35-.83.54-1.54.54h-3.98v3.17h19.35v-3.17h-4.34c-1.17,0-1.5-.56-1.65-.97-.09-.26-.2-.87-.2-2.24v-31.41c0-1.77.2-2.43.38-2.68Zm4.85,39.51h-17.43v-1.26h3.02c1,0,1.76-.3,2.26-.87.49-.57.72-1.71.72-3.46v-31.24c0-1.65-.17-2.67-.55-3.22-.41-.6-1.31-.87-2.84-.87h-2.61v-1.27h17.43v1.27h-2.85c-1.49,0-2.37.27-2.78.86-.38.54-.55,1.56-.55,3.23v13.79h.42v1.9h-.42v15.72c0,1.23.08,2.06.25,2.56.27.73.93,1.6,2.55,1.6h3.38v1.26Z"/><path class="cls-3" d="m249.44,212.95c0,2.61-.44,4.6-1.32,5.96-.87,1.36-2.07,2.04-3.59,2.04-1.25,0-2.22-.42-2.92-1.28-.7-.86-1.05-2.02-1.05-3.5v-17.58h8.88v-2.69h-8.88v-11.09h-1.98c0,6.97-2.55,10.88-7.65,11.74v2.04h4.78v18.33c0,2.15.65,3.82,1.93,5.03,1.29,1.2,3.04,1.81,5.26,1.81,2.6,0,4.68-.93,6.21-2.78,1.54-1.85,2.31-4.52,2.31-8.03h-1.98Z"/><path class="cls-3" d="m248.96,212.47v.48c0,2.51-.41,4.43-1.24,5.7-.78,1.23-1.83,1.82-3.19,1.82-1.11,0-1.95-.36-2.55-1.1-.64-.78-.94-1.83-.94-3.2v-17.11h8.88v-3.64h-8.88v-11.09h-2.93v.48c0,6.76-2.38,10.45-7.26,11.27l-.4.07v2.91h4.78v17.86c0,2.26.7,4.07,2.09,5.38,1.38,1.28,3.26,1.94,5.58,1.94,2.74,0,4.96-1,6.58-2.96,1.6-1.93,2.42-4.73,2.42-8.33v-.48h-2.94Zm-6.06,10.82c-2.08,0-3.74-.57-4.93-1.69-1.2-1.13-1.78-2.66-1.78-4.68v-18.81h-4.79v-1.17c4.97-1.01,7.54-4.93,7.65-11.65h1.04v11.08h8.87v1.74h-8.87v18.06c0,1.58.38,2.86,1.15,3.8.79.97,1.89,1.46,3.29,1.46,1.69,0,3.03-.77,3.99-2.26.87-1.35,1.34-3.28,1.39-5.74h1.03c-.07,3.14-.8,5.58-2.2,7.25-1.43,1.73-3.39,2.61-5.84,2.61Z"/><path class="cls-3" d="m263.16,180.55c-.66-.66-1.44-1-2.34-1-.85,0-1.6.35-2.25,1.03-.64.68-.96,1.47-.96,2.36s.31,1.66.93,2.28c.63.62,1.41.93,2.34.93s1.71-.31,2.34-.93c.62-.62.93-1.38.93-2.28s-.33-1.73-.99-2.39Zm3.15,40.52c-1.44,0-2.16-.66-2.16-1.98v-23.65l-10.86.46v2.22h2.28c2.49,0,3.73,1.09,3.73,3.27v17.23c0,1.63-.85,2.45-2.57,2.45h-2.86v2.22h15.54v-2.22h-3.1Z"/><path class="cls-3" d="m266.31,220.6c-1.18,0-1.68-.46-1.68-1.51v-24.15l-11.82.5v3.16h2.76c2.22,0,3.25.88,3.25,2.79v17.23c0,1.37-.64,1.98-2.09,1.98h-3.33v3.17h16.49v-3.17h-3.58Zm2.63,2.21h-14.59v-1.26h2.38c1.96,0,3.04-1.04,3.04-2.93v-17.23c0-1.71-.72-3.75-4.2-3.75h-1.8v-1.29l9.9-.41v23.15c0,1.58.94,2.46,2.64,2.46h2.63v1.26Zm-5.44-42.6c-.76-.75-1.66-1.13-2.68-1.13s-1.85.39-2.6,1.17c-.72.77-1.09,1.68-1.09,2.69s.36,1.91,1.08,2.62c.72.71,1.62,1.06,2.67,1.06s1.95-.35,2.68-1.06c.71-.71,1.07-1.59,1.07-2.62s-.38-1.98-1.13-2.73Zm-2.62,5.46c-.81,0-1.46-.25-2-.79-.54-.53-.79-1.16-.79-1.94s.27-1.44.82-2.03c.57-.6,1.19-.88,1.91-.88.77,0,1.43.28,2,.86.58.57.85,1.24.85,2.05s-.25,1.41-.78,1.94c-.55.54-1.2.79-2.01.79Z"/><path class="cls-3" d="m291.42,210.44c-1.21-1.4-2.79-2.25-4.73-2.57-7.94-1.4-11.91-3.27-11.91-5.6,0-1.32.53-2.44,1.6-3.36,1.07-.91,2.54-1.37,4.41-1.37,2.26,0,4.09.64,5.49,1.93,1.4,1.28,2.51,3.25,3.33,5.89h1.93l-.71-9.75h-1.22l-1.93,2.05c-1.98-1.48-4.18-2.22-6.6-2.22-2.8,0-5.05.84-6.74,2.54-1.69,1.69-2.54,3.7-2.54,6.04,0,1.71.55,3.23,1.66,4.55,1.11,1.33,2.62,2.22,4.53,2.69l7.53,1.64c2.84.5,4.26,1.9,4.26,4.2,0,1.44-.59,2.62-1.78,3.53-1.19.92-2.77,1.37-4.76,1.37-2.49,0-4.49-.71-6.01-2.13-1.52-1.42-2.84-3.7-3.97-6.86h-1.93l.59,10.86h1.57l2.1-2.45c1.25.97,2.45,1.66,3.6,2.07,1.14.41,2.48.62,3.99.62,2.89,0,5.28-.82,7.19-2.46,1.9-1.63,2.86-3.71,2.86-6.24,0-1.91-.61-3.57-1.81-4.97Z"/><path class="cls-3" d="m291.78,210.13c-1.27-1.47-2.96-2.39-5.01-2.73-9.52-1.68-11.52-3.72-11.52-5.13,0-1.19.47-2.17,1.44-3,.98-.83,2.36-1.25,4.1-1.25,2.13,0,3.87.6,5.17,1.8,1.33,1.21,2.4,3.13,3.2,5.68l.1.34h2.79l-.78-10.7h-1.87l-1.78,1.89c-1.97-1.37-4.17-2.07-6.54-2.07-2.93,0-5.31.91-7.08,2.68-1.77,1.78-2.68,3.93-2.68,6.38,0,1.82.6,3.46,1.78,4.85,1.16,1.4,2.77,2.36,4.79,2.85l7.55,1.65c2.6.46,3.86,1.68,3.86,3.73,0,1.3-.52,2.33-1.59,3.15-1.11.86-2.57,1.27-4.47,1.27-2.35,0-4.26-.67-5.69-2-1.45-1.36-2.75-3.6-3.84-6.67l-.12-.31h-2.76l.64,11.81h2.24l1.95-2.28c1.16.85,2.29,1.48,3.37,1.87,1.2.43,2.59.65,4.15.65,2.99,0,5.51-.87,7.5-2.58,2.01-1.72,3.03-3.94,3.03-6.6,0-2.01-.65-3.79-1.93-5.28Zm-8.6,13.51c-1.45,0-2.74-.2-3.83-.6-1.1-.39-2.26-1.06-3.47-2l-.36-.27-2.25,2.62h-.9l-.54-9.9h1.1c1.14,3.09,2.44,5.29,3.98,6.73,1.6,1.5,3.73,2.25,6.33,2.25,2.12,0,3.77-.48,5.05-1.46,1.3-1,1.96-2.31,1.96-3.91,0-2.55-1.56-4.12-4.63-4.66l-7.52-1.64c-1.83-.45-3.23-1.28-4.28-2.54-1.02-1.22-1.55-2.65-1.55-4.24,0-2.22.79-4.09,2.41-5.71,1.58-1.59,3.73-2.4,6.4-2.4,2.3,0,4.43.72,6.32,2.13l.33.25,2.08-2.2h.58l.64,8.8h-1.07c-.84-2.56-1.97-4.5-3.36-5.77-1.48-1.36-3.43-2.06-5.81-2.06-1.97,0-3.56.5-4.72,1.49-1.17,1.01-1.77,2.26-1.77,3.72,0,2.62,4.03,4.61,12.31,6.07,1.83.3,3.33,1.11,4.45,2.41,1.12,1.31,1.69,2.88,1.69,4.66,0,2.37-.9,4.35-2.69,5.88-1.84,1.58-4.09,2.35-6.88,2.35Z"/><path class="cls-3" d="m219.46,200.07c-6.21-2.34-13.05-1.71-18.76,1.5-8.81,3.76-19.33,3.76-28.03-.18-2.1-1.09-4.12-2.5-5.41-4.46,3.31,3.28,7.99,4.33,12.45,4.8,6.62.52,13.58-.2,19.53-3.12,2.11-1.17,4.39-2.22,6.76-2.76,4.81-1.21,10.09-.65,14.58,1.37,0,0-1.13,2.84-1.13,2.84h0Z"/></svg>