<svg id="visual" viewBox="0 0 960 540" width="960" height="540" xmlns="http://www.w3.org/2000/svg" xmlns:xlink="http://www.w3.org/1999/xlink" version="1.1"><rect x="0" y="0" width="960" height="540" fill="#4fcff7"></rect><path d="M0 340L14.5 338.7C29 337.3 58 334.7 87.2 336.2C116.3 337.7 145.7 343.3 174.8 345.3C204 347.3 233 345.7 262 346.8C291 348 320 352 349 351.5C378 351 407 346 436.2 346.5C465.3 347 494.7 353 523.8 351.7C553 350.3 582 341.7 611 341.2C640 340.7 669 348.3 698 353.2C727 358 756 360 785.2 360.5C814.3 361 843.7 360 872.8 355.7C902 351.3 931 343.7 945.5 339.8L960 336L960 541L945.5 541C931 541 902 541 872.8 541C843.7 541 814.3 541 785.2 541C756 541 727 541 698 541C669 541 640 541 611 541C582 541 553 541 523.8 541C494.7 541 465.3 541 436.2 541C407 541 378 541 349 541C320 541 291 541 262 541C233 541 204 541 174.8 541C145.7 541 116.3 541 87.2 541C58 541 29 541 14.5 541L0 541Z" fill="#009473"></path><path d="M0 384L14.5 383.3C29 382.7 58 381.3 87.2 377C116.3 372.7 145.7 365.3 174.8 367.7C204 370 233 382 262 381.8C291 381.7 320 369.3 349 369.2C378 369 407 381 436.2 382.8C465.3 384.7 494.7 376.3 523.8 375.5C553 374.7 582 381.3 611 386.2C640 391 669 394 698 392C727 390 756 383 785.2 379C814.3 375 843.7 374 872.8 371.3C902 368.7 931 364.3 945.5 362.2L960 360L960 541L945.5 541C931 541 902 541 872.8 541C843.7 541 814.3 541 785.2 541C756 541 727 541 698 541C669 541 640 541 611 541C582 541 553 541 523.8 541C494.7 541 465.3 541 436.2 541C407 541 378 541 349 541C320 541 291 541 262 541C233 541 204 541 174.8 541C145.7 541 116.3 541 87.2 541C58 541 29 541 14.5 541L0 541Z" fill="#239d6c"></path><path d="M0 412L14.5 409.7C29 407.3 58 402.7 87.2 399.7C116.3 396.7 145.7 395.3 174.8 397.8C204 400.3 233 406.7 262 410.8C291 415 320 417 349 418C378 419 407 419 436.2 419.2C465.3 419.3 494.7 419.7 523.8 416.7C553 413.7 582 407.3 611 402.5C640 397.7 669 394.3 698 393.2C727 392 756 393 785.2 397.7C814.3 402.3 843.7 410.7 872.8 415.8C902 421 931 423 945.5 424L960 425L960 541L945.5 541C931 541 902 541 872.8 541C843.7 541 814.3 541 785.2 541C756 541 727 541 698 541C669 541 640 541 611 541C582 541 553 541 523.8 541C494.7 541 465.3 541 436.2 541C407 541 378 541 349 541C320 541 291 541 262 541C233 541 204 541 174.8 541C145.7 541 116.3 541 87.2 541C58 541 29 541 14.5 541L0 541Z" fill="#3da663"></path><path d="M0 453L14.5 450.5C29 448 58 443 87.2 441.2C116.3 439.3 145.7 440.7 174.8 440.5C204 440.3 233 438.7 262 438C291 437.3 320 437.7 349 439.8C378 442 407 446 436.2 444.3C465.3 442.7 494.7 435.3 523.8 431.2C553 427 582 426 611 429.5C640 433 669 441 698 445.7C727 450.3 756 451.7 785.2 448.7C814.3 445.7 843.7 438.3 872.8 435.8C902 433.3 931 435.7 945.5 436.8L960 438L960 541L945.5 541C931 541 902 541 872.8 541C843.7 541 814.3 541 785.2 541C756 541 727 541 698 541C669 541 640 541 611 541C582 541 553 541 523.8 541C494.7 541 465.3 541 436.2 541C407 541 378 541 349 541C320 541 291 541 262 541C233 541 204 541 174.8 541C145.7 541 116.3 541 87.2 541C58 541 29 541 14.5 541L0 541Z" fill="#55ae58"></path><path d="M0 482L14.5 479.3C29 476.7 58 471.3 87.2 471.3C116.3 471.3 145.7 476.7 174.8 479.5C204 482.3 233 482.7 262 481C291 479.3 320 475.7 349 474.2C378 472.7 407 473.3 436.2 474.3C465.3 475.3 494.7 476.7 523.8 475C553 473.3 582 468.7 611 467.7C640 466.7 669 469.3 698 471.2C727 473 756 474 785.2 474.5C814.3 475 843.7 475 872.8 476.2C902 477.3 931 479.7 945.5 480.8L960 482L960 541L945.5 541C931 541 902 541 872.8 541C843.7 541 814.3 541 785.2 541C756 541 727 541 698 541C669 541 640 541 611 541C582 541 553 541 523.8 541C494.7 541 465.3 541 436.2 541C407 541 378 541 349 541C320 541 291 541 262 541C233 541 204 541 174.8 541C145.7 541 116.3 541 87.2 541C58 541 29 541 14.5 541L0 541Z" fill="#6fb54b"></path><path d="M0 510L14.5 509.8C29 509.7 58 509.3 87.2 507.3C116.3 505.3 145.7 501.7 174.8 499.3C204 497 233 496 262 496.7C291 497.3 320 499.7 349 500.5C378 501.3 407 500.7 436.2 502.2C465.3 503.7 494.7 507.3 523.8 507.3C553 507.3 582 503.7 611 502C640 500.3 669 500.7 698 500.2C727 499.7 756 498.3 785.2 496.8C814.3 495.3 843.7 493.7 872.8 494.8C902 496 931 500 945.5 502L960 504L960 541L945.5 541C931 541 902 541 872.8 541C843.7 541 814.3 541 785.2 541C756 541 727 541 698 541C669 541 640 541 611 541C582 541 553 541 523.8 541C494.7 541 465.3 541 436.2 541C407 541 378 541 349 541C320 541 291 541 262 541C233 541 204 541 174.8 541C145.7 541 116.3 541 87.2 541C58 541 29 541 14.5 541L0 541Z" fill="#89bb3c"></path></svg>