<svg id="visual" viewBox="0 0 900 450" width="900" height="450" xmlns="http://www.w3.org/2000/svg" xmlns:xlink="http://www.w3.org/1999/xlink" version="1.1"><rect x="0" y="0" width="900" height="450" fill="#4fcff7"></rect><path d="M0 283L13.7 282C27.3 281 54.7 279 82 280.3C109.3 281.7 136.7 286.3 163.8 288C191 289.7 218 288.3 245.2 289.2C272.3 290 299.7 293 327 292.5C354.3 292 381.7 288 409 288.5C436.3 289 463.7 294 491 292.8C518.3 291.7 545.7 284.3 573 284C600.3 283.7 627.7 290.3 654.8 294.3C682 298.3 709 299.7 736.2 300C763.3 300.3 790.7 299.7 818 296.2C845.3 292.7 872.7 286.3 886.3 283.2L900 280L900 451L886.3 451C872.7 451 845.3 451 818 451C790.7 451 763.3 451 736.2 451C709 451 682 451 654.8 451C627.7 451 600.3 451 573 451C545.7 451 518.3 451 491 451C463.7 451 436.3 451 409 451C381.7 451 354.3 451 327 451C299.7 451 272.3 451 245.2 451C218 451 191 451 163.8 451C136.7 451 109.3 451 82 451C54.7 451 27.3 451 13.7 451L0 451Z" fill="#009473"></path><path d="M0 319L13.7 318.7C27.3 318.3 54.7 317.7 82 314.2C109.3 310.7 136.7 304.3 163.8 306.2C191 308 218 318 245.2 318C272.3 318 299.7 308 327 308C354.3 308 381.7 318 409 319.3C436.3 320.7 463.7 313.3 491 312.5C518.3 311.7 545.7 317.3 573 321.3C600.3 325.3 627.7 327.7 654.8 326C682 324.3 709 318.7 736.2 315.3C763.3 312 790.7 311 818 308.8C845.3 306.7 872.7 303.3 886.3 301.7L900 300L900 451L886.3 451C872.7 451 845.3 451 818 451C790.7 451 763.3 451 736.2 451C709 451 682 451 654.8 451C627.7 451 600.3 451 573 451C545.7 451 518.3 451 491 451C463.7 451 436.3 451 409 451C381.7 451 354.3 451 327 451C299.7 451 272.3 451 245.2 451C218 451 191 451 163.8 451C136.7 451 109.3 451 82 451C54.7 451 27.3 451 13.7 451L0 451Z" fill="#239d6c"></path><path d="M0 343L13.7 341C27.3 339 54.7 335 82 332.5C109.3 330 136.7 329 163.8 331.2C191 333.3 218 338.7 245.2 342.2C272.3 345.7 299.7 347.3 327 348.2C354.3 349 381.7 349 409 349.2C436.3 349.3 463.7 349.7 491 347.2C518.3 344.7 545.7 339.3 573 335.2C600.3 331 627.7 328 654.8 327C682 326 709 327 736.2 331C763.3 335 790.7 342 818 346.3C845.3 350.7 872.7 352.3 886.3 353.2L900 354L900 451L886.3 451C872.7 451 845.3 451 818 451C790.7 451 763.3 451 736.2 451C709 451 682 451 654.8 451C627.7 451 600.3 451 573 451C545.7 451 518.3 451 491 451C463.7 451 436.3 451 409 451C381.7 451 354.3 451 327 451C299.7 451 272.3 451 245.2 451C218 451 191 451 163.8 451C136.7 451 109.3 451 82 451C54.7 451 27.3 451 13.7 451L0 451Z" fill="#3da663"></path><path d="M0 378L13.7 375.8C27.3 373.7 54.7 369.3 82 367.7C109.3 366 136.7 367 163.8 366.8C191 366.7 218 365.3 245.2 364.8C272.3 364.3 299.7 364.7 327 366.3C354.3 368 381.7 371 409 369.7C436.3 368.3 463.7 362.7 491 359.3C518.3 356 545.7 355 573 357.8C600.3 360.7 627.7 367.3 654.8 371.3C682 375.3 709 376.7 736.2 374.2C763.3 371.7 790.7 365.3 818 363.2C845.3 361 872.7 363 886.3 364L900 365L900 451L886.3 451C872.7 451 845.3 451 818 451C790.7 451 763.3 451 736.2 451C709 451 682 451 654.8 451C627.7 451 600.3 451 573 451C545.7 451 518.3 451 491 451C463.7 451 436.3 451 409 451C381.7 451 354.3 451 327 451C299.7 451 272.3 451 245.2 451C218 451 191 451 163.8 451C136.7 451 109.3 451 82 451C54.7 451 27.3 451 13.7 451L0 451Z" fill="#55ae58"></path><path d="M0 401L13.7 398.8C27.3 396.7 54.7 392.3 82 392.3C109.3 392.3 136.7 396.7 163.8 399C191 401.3 218 401.7 245.2 400.5C272.3 399.3 299.7 396.7 327 395.5C354.3 394.3 381.7 394.7 409 395.3C436.3 396 463.7 397 491 395.5C518.3 394 545.7 390 573 389.2C600.3 388.3 627.7 390.7 654.8 392.3C682 394 709 395 736.2 395.5C763.3 396 790.7 396 818 397C845.3 398 872.7 400 886.3 401L900 402L900 451L886.3 451C872.7 451 845.3 451 818 451C790.7 451 763.3 451 736.2 451C709 451 682 451 654.8 451C627.7 451 600.3 451 573 451C545.7 451 518.3 451 491 451C463.7 451 436.3 451 409 451C381.7 451 354.3 451 327 451C299.7 451 272.3 451 245.2 451C218 451 191 451 163.8 451C136.7 451 109.3 451 82 451C54.7 451 27.3 451 13.7 451L0 451Z" fill="#6fb54b"></path><path d="M0 425L13.7 424.8C27.3 424.7 54.7 424.3 82 422.5C109.3 420.7 136.7 417.3 163.8 415.3C191 413.3 218 412.7 245.2 413.5C272.3 414.3 299.7 416.7 327 417.5C354.3 418.3 381.7 417.7 409 418.7C436.3 419.7 463.7 422.3 491 422.3C518.3 422.3 545.7 419.7 573 418.5C600.3 417.3 627.7 417.7 654.8 417.2C682 416.7 709 415.3 736.2 414C763.3 412.7 790.7 411.3 818 412.3C845.3 413.3 872.7 416.7 886.3 418.3L900 420L900 451L886.3 451C872.7 451 845.3 451 818 451C790.7 451 763.3 451 736.2 451C709 451 682 451 654.8 451C627.7 451 600.3 451 573 451C545.7 451 518.3 451 491 451C463.7 451 436.3 451 409 451C381.7 451 354.3 451 327 451C299.7 451 272.3 451 245.2 451C218 451 191 451 163.8 451C136.7 451 109.3 451 82 451C54.7 451 27.3 451 13.7 451L0 451Z" fill="#89bb3c"></path></svg>